<svg width="1619" height="238" viewBox="0 0 1619 238" fill="none" xmlns="http://www.w3.org/2000/svg">
<path d="M442.14 183H413.34V60.24H446.28L562.56 151.86V60.24H591.36V183H558.96L442.14 90.3V183ZM610.482 137.46C610.482 104.34 635.682 89.58 688.962 89.58C742.422 89.58 767.622 104.34 767.622 137.46C767.622 170.4 742.422 185.16 688.962 185.16C635.682 185.16 610.482 170.4 610.482 137.46ZM637.302 137.46C637.302 155.28 649.542 162.48 688.962 162.48C728.562 162.48 740.802 155.28 740.802 137.46C740.802 119.64 728.562 112.44 688.962 112.44C649.542 112.44 637.302 119.64 637.302 137.46ZM899.919 48H926.919V183H903.339L901.179 169.14C882.999 177.42 861.399 184.8 838.899 184.8C803.439 184.8 783.099 172.02 783.099 138.54C783.099 102.36 810.099 90.3 849.699 90.3C868.419 90.3 885.519 92.46 899.919 94.98V48ZM809.919 138C809.919 155.46 819.639 162.48 843.039 162.48C860.859 162.48 880.299 157.98 899.919 151.68V115.68C884.259 113.7 864.639 112.08 847.899 112.08C823.599 112.08 809.919 119.1 809.919 138ZM1022.37 163.92C1049.19 163.92 1070.43 160.5 1080.33 158.7L1085.91 178.32C1069.71 182.28 1043.43 185.34 1020.03 185.34C969.449 185.34 946.049 172.02 946.049 137.46C946.049 103.44 971.969 89.76 1017.51 89.76C1059.81 89.76 1088.43 100.74 1088.43 131.7C1088.43 135.48 1088.07 141.78 1087.71 143.94H972.509C975.389 160.32 989.249 163.92 1022.37 163.92ZM1016.61 108.12C987.629 108.12 975.029 113.52 972.509 129.54H1061.97C1060.17 114.78 1050.09 108.12 1016.61 108.12ZM1202.54 185.34C1134.32 185.34 1103.9 165.72 1103.9 121.62C1103.9 77.52 1134.32 57.9 1202.54 57.9C1270.76 57.9 1301.18 77.52 1301.18 121.62C1301.18 165.72 1270.76 185.34 1202.54 185.34ZM1202.54 160.5C1255.28 160.5 1272.02 149.16 1272.02 121.62C1272.02 94.08 1255.28 82.74 1202.54 82.74C1149.8 82.74 1132.7 94.08 1132.7 121.62C1132.7 149.16 1149.8 160.5 1202.54 160.5ZM1347.2 216.3H1320.2V92.1H1343.78L1345.94 105.96C1364.3 97.68 1386.8 90.3 1410.02 90.3C1444.04 90.3 1464.02 103.62 1464.02 136.56C1464.02 172.2 1437.92 184.8 1398.32 184.8C1380.14 184.8 1362.14 182.64 1347.2 179.94V216.3ZM1405.16 112.62C1388.24 112.62 1367.72 117.12 1347.2 123.6V159.42C1363.04 161.22 1382.84 163.02 1399.76 163.02C1424.06 163.02 1437.2 156 1437.2 137.1C1437.2 119.82 1428.02 112.62 1405.16 112.62ZM1612.38 158.16C1612.38 179.4 1594.02 185.34 1549.74 185.34C1522.92 185.34 1497.36 181.74 1481.34 178.14L1485.84 160.5C1503.48 163.74 1527.78 167.16 1553.16 167.16C1579.44 167.16 1587.18 165.54 1587.18 157.98C1587.18 150.06 1580.16 148.98 1562.52 147.72L1519.68 145.2C1491.6 143.58 1479.54 136.56 1479.54 116.94C1479.54 94.62 1502.4 89.58 1545.78 89.58C1564.5 89.58 1590.78 92.46 1606.08 94.98L1601.94 112.8C1582.5 109.56 1560.72 107.58 1539.66 107.58C1513.02 107.58 1504.74 109.02 1504.74 116.76C1504.74 124.32 1511.22 125.04 1522.56 125.76L1566.3 128.64C1596.72 130.44 1612.38 137.1 1612.38 158.16Z" fill="white"/>
<path d="M111.912 230H0V8H224.56V95.7674L247.385 117.894H335V228.525H224.56V141.495L202.473 120.106H111.912V230Z" fill="white"/>
</svg>
